<?xml version="1.0" encoding="utf-8"?>
<!-- Generator: Adobe Illustrator 24.2.1, SVG Export Plug-In . SVG Version: 6.00 Build 0)  -->
<svg version="1.1" id="Layer_1" xmlns="http://www.w3.org/2000/svg" xmlns:xlink="http://www.w3.org/1999/xlink" x="0px" y="0px"
	 viewBox="0 0 794.2 349.6" style="enable-background:new 0 0 794.2 349.6;" xml:space="preserve">
<style type="text/css">
	.st0{fill:#F3984F;}
</style>
<g>
	<path class="st0" d="M93.6,107.4C84.9,120.1,76,133,67.3,145.7c-3.9,5.7-7.7,11.3-11.7,16.9c-2.6,3.6-5.7,6.4-9.4,7.7
		c-1.8,0.7-3.7,0.7-7.6,1c-2.6,0.1-3.9,0.1-10.2,0.1c-8.8,0-9.3,0.1-11.3-0.1c-3.5-0.4-6.2-0.8-9.3-2.8c-1.2-0.7-4-2.3-5.9-5.8
		c-0.6-0.8-1.5-2.8-1.8-5.4c-0.4-3.6,0.8-7.2,3-10.5c5.3-7.9,10.6-15.6,15.9-23.5c14.2-20.9,28.5-41.9,42.9-62.8
		c9.7-14.1,19.6-27.9,29.4-41.9c3.5-4.8,6.4-10,10.1-14.7c1.4-1.7,4.3-3,6.6-3c10.1-0.3,20.2-0.3,30.3-0.1
		c7.2,0.1,13.7,6.1,14.5,13.4c0.3,2.2,0.3,4.6,0.3,6.9c0,11.3-1.2,77,0,208.7c0,2.6,0.1,7.9,0.1,14.5c8.6-12,21.1-29.7,36.2-51.1
		c28.5-40.8,42.7-61.2,51-74.6c22.4-35.9,48.2-69.8,71.7-105.1c2.2-3.3,6.1-9.3,13.3-12c3.5-1.4,9-1.5,20-1.5
		c10.1-0.1,13.4,0.6,16.6,2.3c1.5,0.8,5.1,2.9,7,6.9s2.9,9.7-1.5,16.6c-5,7.9-10.4,15.5-15.6,23.1c-28.5,41.5-56.9,82.9-85.4,124.4
		c-37.7,54.9-75.5,109.9-113.1,164.9c-2.9,4.3-6.4,7.5-10.5,9.3c-2.5,1.1-5.1,1.2-10.2,1.7c0,0-5.4,0.4-18.8-0.1h-2.2
		c-1.7,0-8.2-1-11.7-4.7c-2.9-2.9-4.6-7-4.6-11.9c0-35.1,0.1-203.2,0.1-203.2c0.1-9.7,0-18,0-24.5C94.7,105.6,94.1,106.5,93.6,107.4
		z"/>
	<path class="st0" d="M339.2,327.2c-1.2,1.1-3,2.8-5.3,4.7c-8,7-11.9,10.5-16.3,12.4c-2.5,1.1-10.9,4.6-20.5,2.1
		c-10.9-2.9-14.9-11.7-16.9-21.8c-0.3-1.4-0.6-2.9-1-5.3c-5.4,4.3-10.2,8-14.9,11.7c-11.3,8.8-23.6,15.6-38,18
		c-21,3.5-37.2-9.5-32.5-33.5c3.3-16.6,11.9-31.2,20.5-45.6c13.7-22.9,31.5-42,54.6-55.6c7.6-4.4,16.3-7.7,25-9.5
		c21.8-4.3,36.8,11.7,31.7,33.5c-2.6,11.2-6.6,22.1-9.5,33.3c-2.6,9.7-4.4,19.6-6.9,29.3c-1,3.6-1.1,5.9,0.1,6.9
		c1.7,1.4,5.3-0.7,6.2-1.2c0.4-0.3,0.8-0.7,1.5-1.1c10.4-7.7,22-21.1,40.1-51.3c8.3-13.7,16.9-27.2,25.3-40.8
		c6.5-10.5,17.7-11.9,25.2-3.5c4.4,5.1,4.4,12.3,0.3,19.2c-6.2,10.5-9,15.1-15.9,27.2c-2.8,4.8-6.4,12.2-9.3,22.1
		c0.6-0.6,1.1-1.1,1.8-1.5c3.3-3,6.6-6.1,9.8-9.3c21.4-21.3,45.2-39.7,71.3-54.7c5.1-2.9,10.6-5.4,16.2-7.3
		c7.7-2.8,14.4-0.7,18.8,5.3c3.7,5,4,12.3-0.4,18.4c-17.1,23.6-22.9,41.9-30.3,67.2c-1.1,4-1.9,7.3-2.2,9.1c0.6-0.3,1.7-1,3-1.8
		c0,0,3.7-2.2,7.5-5c23.5-17,34.7-27.5,34.7-27.5c19.8-16.9,35.9-37.3,52.4-57.4c2.9-3.6,7-7,11.3-8.7c5.8-2.2,11.3,0,15.5,5.1
		c3.9,4.8,3.7,10.1,1.8,15.5c-0.7,2.1-1.9,4.1-3.3,5.9c-17,22.9-25.6,49.3-31.5,76.9c-1.7,7.9-3,15.9-4.7,23.8
		c-1.7,8.4-6.2,13.4-12.9,14.2c-11.3,1.2-19.2-6.9-17.3-18.2c1.4-8.3,3.2-16.4,4.7-24.7c0.3-1.8,0.6-3.6,1.1-6.8
		c-2.2,1.8-3.3,2.8-4.6,3.7c-19.6,16.3-39.8,31.9-63,42.9c-4.3,2.1-9.3,3.3-14,3.6c-10.5,0.4-18.1-8.3-15.9-18.7
		c4.7-21.6,8.2-42.6,14.2-60.4c0,0,0.3-0.7,0.6-1.5c0,0,0-0.1,0.1-0.3c0.4-1.2,1-2.6,1.4-3.7c0.1-0.6,0.4-1.4,0.7-2.3
		c-1.4,1-3.5,2.8-6.2,5c-44.4,36.9-56.7,54-75.6,76.7c-8.2,9.7-23.2,7.7-27.2-3.6C339.5,335.1,339.8,331.5,339.2,327.2z
		 M293.9,236.9c-20.5,3.3-67.7,59.2-66.9,79.2C248,314.8,295.9,258.1,293.9,236.9z"/>
	<path class="st0" d="M688.5,328.4c-2.2,1.5-5.5,3.9-9.7,6.2c-7.9,4.4-23.1,13-43.8,14c-7.7,0.4-21.1,0.8-34.8-6.4
		c-4.6-2.3-8.8-5.4-12.9-9.1c-15.2-14.4-18-32.5-10.1-52.7c11.6-29.4,31.7-52.7,58.2-69.8c10.2-6.6,21.8-10,34-7.9
		c18.9,3.2,28.8,20.3,24.9,40.6c-1.8,9.5-6.8,17.3-12,24.9c-4.8,6.9-13.7,8.4-20.3,4.3c-7.5-4.6-9.7-11.9-5.8-20
		c1.5-3.2,3.9-5.9,5.1-9.1c0.7-1.8,0.4-3.7,0.4-3.7l0,0c0-0.1-0.7-2.6-2.9-3.3c-1.4-0.6-2.8-0.1-3.2,0c-0.1,0.1-0.4,0.3-0.8,0.4
		c-5.1,2.6-33.9,20.6-46.6,51.8c-6.6,16.3-0.6,27.2,19.5,28.1c20.3,0.8,38.3-6.9,52.9-21.8c13.5-13.7,21.7-30.8,30.7-47.4
		c6.6-12,13.4-23.9,20.9-35.4c6.1-9.3,17.4-9.5,24.2-1.7c4.3,4.8,4.6,12,0.7,18.4c-3.5,5.7-7.2,10.9-10.5,16.6
		c-13.4,22.4-19.6,47.1-24.7,72.3c-1.1,5.3-1.8,10.5-2.9,15.8c-1.8,8.6-6.6,13.3-13.8,13.5c-4.7,0.3-8.4-0.8-11.2-3.2
		c-3.6-3-4.6-7.5-5.3-10.8C688.6,330.9,688.5,329.4,688.5,328.4z"/>
	<path class="st0" d="M590.8,184.4c0.1-8.7,11.1-21.8,19.6-23.6c6.8-1.4,12,1.1,15.8,6.6c3.3,5,3.3,10.6,0,15.5
		c-3.2,4.7-7,9.3-11.2,13.1c-4.4,4.1-10.2,4.8-15.8,1.9C593.8,195.2,590.5,190.8,590.8,184.4z"/>
	<path class="st0" d="M756.5,182.9c0-6.9,10.8-20.2,19.4-22c6.8-1.5,12,1,15.8,6.5c3.5,5.1,3.5,10.9,0,15.9
		c-3.2,4.6-6.9,9-10.9,12.7c-4.4,4.1-10.2,5-15.8,2.2C759.7,195.3,756.4,190.9,756.5,182.9z"/>
</g>
<path class="st0" d="M345.4,214.7"/>
</svg>
