<svg id="Layer_1" data-name="Layer 1" xmlns="http://www.w3.org/2000/svg" viewBox="0 0 574.64 253.13"><defs><style>.cls-1{fill:#bc8e21;}</style></defs><path class="cls-1" d="M67.68,77.82l-19,27.75c-2.8,4.09-5.56,8.22-8.48,12.24a15,15,0,0,1-6.78,5.57c-1.28.48-2.7.53-5.5.71-2,.13-2.81.1-7.4.09-6.38,0-6.65.06-8.17-.15a15.89,15.89,0,0,1-6.69-2,11.54,11.54,0,0,1-4.26-4.18A10,10,0,0,1,.06,114a11.5,11.5,0,0,1,2.16-7.64C6,100.59,9.91,95,13.75,89.33,24.05,74.18,34.27,59,44.65,43.9c7-10.17,14.22-20.2,21.31-30.31C68.42,10.08,70.59,6.34,73.29,3A7.08,7.08,0,0,1,78.05.78C85.33.54,92.62.62,99.91.7a11,11,0,0,1,10.46,9.7,43.2,43.2,0,0,1,.19,5c0,8.16-.89,55.69,0,151,0,1.89,0,5.66.12,10.48,6.24-8.7,15.32-21.47,26.16-37,20.58-29.55,30.88-44.32,36.92-54,16.21-26,34.89-50.46,51.9-76,1.58-2.38,4.43-6.66,9.64-8.67,2.55-1,6.52-1.08,14.52-1.14,7.33-.07,9.65.36,12,1.67a11.69,11.69,0,0,1,5.12,5c1.4,2.91,2.13,7-1.09,12-3.6,5.68-7.53,11.15-11.34,16.7q-30.9,45-61.83,90-40.94,59.61-81.84,119.26a17.77,17.77,0,0,1-7.6,6.68c-1.83.78-3.71.9-7.38,1.15,0,0-3.86.27-13.59-.07H80.66c-1.17,0-5.89-.73-8.51-3.4a11.92,11.92,0,0,1-3.25-8.56c0-25.45.09-147,.09-147,.09-7,0-13,0-17.71C68.52,76.46,68.1,77.14,67.68,77.82Z"/><path class="cls-1" d="M245.44,236.77c-.9.84-2.19,2-3.77,3.44-5.76,5.06-8.64,7.59-11.77,9a22.67,22.67,0,0,1-14.76,1.53c-7.93-2.08-10.78-8.46-12.17-15.79-.2-1-.39-2.06-.71-3.75-3.94,3.09-7.38,5.77-10.8,8.47-8.18,6.44-17.09,11.31-27.5,13-15.23,2.53-27-6.92-23.52-24.2,2.39-12.05,8.61-22.61,14.85-33,9.91-16.57,22.79-30.41,39.49-40.21a59,59,0,0,1,18.09-6.86c15.8-3.12,26.6,8.45,22.91,24.21-1.91,8.13-4.76,16-6.93,24.11-1.88,7-3.18,14.17-5,21.21-.66,2.58-.77,4.26.13,5,1.24,1,3.82-.51,4.45-.89l1.12-.8c7.54-5.59,15.88-15.32,29-37.12,6-9.92,12.17-19.7,18.32-29.51,4.75-7.57,12.84-8.65,18.16-2.5,3.19,3.69,3.22,8.86.22,13.86-4.54,7.58-6.47,10.87-11.5,19.69a72.88,72.88,0,0,0-6.68,16l1.26-1.14c2.37-2.23,4.81-4.4,7.12-6.7a248.35,248.35,0,0,1,51.61-39.56,72,72,0,0,1,11.72-5.34c5.6-2,10.42-.46,13.64,3.79,2.72,3.59,2.87,8.87-.35,13.31-12.39,17.11-16.56,30.34-21.87,48.6-.85,2.92-1.38,5.3-1.65,6.58.42-.24,1.21-.7,2.17-1.29,0,0,2.67-1.64,5.4-3.63,17-12.35,25.14-19.87,25.14-19.87,14.34-12.24,26-27,37.86-41.53a20.78,20.78,0,0,1,8.15-6.26c4.2-1.6,8.23,0,11.19,3.66,2.82,3.49,2.71,7.33,1.31,11.25a16.93,16.93,0,0,1-2.41,4.31c-12.32,16.6-18.53,35.69-22.81,55.57-1.23,5.7-2.25,11.45-3.38,17.18-1.21,6.14-4.48,9.75-9.26,10.26-8.2.88-13.91-5-12.54-13.18,1-6,2.28-11.9,3.42-17.86.24-1.27.42-2.55.79-4.85-1.57,1.29-2.43,2-3.28,2.7-14.18,11.83-28.77,23.09-45.56,31a26.57,26.57,0,0,1-10.12,2.55c-7.64.29-13.08-6-11.46-13.52,3.37-15.57,5.93-30.78,10.29-43.72,0,0,.16-.49.38-1.12l.06-.17c.31-.87.74-1.92,1-2.69a13.54,13.54,0,0,0,.46-1.7c-1,.74-2.55,2-4.46,3.59-32.08,26.74-41,39.07-54.74,55.52-5.88,7-16.77,5.6-19.73-2.61C245.64,242.5,245.8,239.88,245.44,236.77Zm-32.89-65.26c-14.82,2.41-49,42.85-48.41,57.28C179.44,227.75,214.07,186.79,212.55,171.51Z"/><path class="cls-1" d="M498.11,237.69a81,81,0,0,1-7,4.48c-5.66,3.23-16.66,9.35-31.7,10.06-5.56.26-15.25.61-25.24-4.57a41.09,41.09,0,0,1-9.29-6.63c-11-10.36-13-23.5-7.27-38.05,8.44-21.29,22.86-38.08,42.12-50.52,7.43-4.8,15.83-7.21,24.6-5.75,13.67,2.29,20.83,14.68,18,29.38-1.31,6.87-4.87,12.52-8.68,18A10.82,10.82,0,0,1,479,197.23c-5.4-3.3-7-8.56-4.17-14.54,1.07-2.29,2.76-4.31,3.67-6.64a6.48,6.48,0,0,0,.31-2.74h0a3.56,3.56,0,0,0-2.09-2.45,3.33,3.33,0,0,0-2.25,0l-.57.29c-3.68,1.88-24.46,14.86-33.73,37.49-4.84,11.78-.42,19.67,14.12,20.26,14.72.6,27.72-5,38.31-15.79,9.79-9.94,15.68-22.27,22.24-34.26,4.76-8.68,9.66-17.33,15.13-25.58,4.45-6.69,12.6-6.92,17.53-1.23,3.06,3.53,3.35,8.67.55,13.27-2.46,4.06-5.2,7.94-7.63,12-9.65,16.16-14.16,34.1-17.91,52.3-.77,3.77-1.34,7.59-2.14,11.36-1.3,6.18-4.8,9.56-10,9.82a11.45,11.45,0,0,1-8.15-2.33c-2.64-2.21-3.26-5.36-3.75-7.76A18.32,18.32,0,0,1,498.11,237.69Z"/><path class="cls-1" d="M427.38,133.5c.09-6.32,8-15.8,14.16-17.09,4.94-1,8.73.85,11.38,4.82a9.64,9.64,0,0,1,0,11.22,55.76,55.76,0,0,1-8.15,9.47,9.49,9.49,0,0,1-11.38,1.43C429.61,141.33,427.22,138.1,427.38,133.5Z"/><path class="cls-1" d="M547.31,132.36c0-5,7.83-14.57,14-15.92,4.91-1.07,8.74.72,11.44,4.68a9.75,9.75,0,0,1,0,11.5,54.92,54.92,0,0,1-7.94,9.22,9.54,9.54,0,0,1-11.37,1.57C549.62,141.44,547.21,138.23,547.31,132.36Z"/></svg>