<svg id="Layer_1" data-name="Layer 1" xmlns="http://www.w3.org/2000/svg" viewBox="0 0 225 225"><defs><style>.cls-1{fill:#900;}</style></defs><path class="cls-1" d="M222.5,112.5a77.21,77.21,0,0,0-41.58-68.42,77.08,77.08,0,0,0-136.84,0,77.08,77.08,0,0,0,0,136.84,77.08,77.08,0,0,0,136.84,0A77.21,77.21,0,0,0,222.5,112.5ZM143.92,35.4a77.19,77.19,0,0,0-75.66,75.67,54.16,54.16,0,0,1-6.89-49.7A54,54,0,0,1,79.64,58.2V36.45a54.12,54.12,0,0,1,64.28-1.05Zm-20,88.52h8.81a54,54,0,0,1-8.81,20Zm0-22.84V92.27a54,54,0,0,1,20,8.81Zm-31.65,0a54,54,0,0,1,8.81-20v20Zm8.81,22.84v8.81a54,54,0,0,1-20-8.81ZM35.4,81.08a77.19,77.19,0,0,0,75.67,75.66,54.16,54.16,0,0,1-49.7,6.89,54,54,0,0,1-3.17-18.27H36.45A54.12,54.12,0,0,1,35.4,81.08ZM81.08,189.6a77.19,77.19,0,0,0,75.66-75.67,54.16,54.16,0,0,1,6.89,49.7,54,54,0,0,1-18.27,3.17v21.75a54.12,54.12,0,0,1-64.28,1ZM189.6,143.92a77.19,77.19,0,0,0-75.67-75.66,54.16,54.16,0,0,1,49.7-6.89,54,54,0,0,1,3.17,18.27h21.75a54.12,54.12,0,0,1,1,64.28Z"/></svg>